<svg xmlns="http://www.w3.org/2000/svg" preserveAspectRatio="xMinYMin meet" viewBox="126.55661511111111 83.62404889814758 0.060002133333344435 0.10174824661607573">
    <g>
      <path d="M126.57671111111112,83.62453116500765 126.57667555555555,83.62462526532819 126.57659022222224,83.62471936547564 126.57654044444445,83.62473112798193 126.57642666666666,83.62470760296668 126.57596444444444,83.62448411478243 126.57583644444443,83.62440177678418 126.57572266666666,83.62430767605247 126.57555911111112,83.62409594877309 126.57548088888889,83.624060660808 126.57543822222223,83.62407242346572 126.57538844444446,83.62415476199419 126.57526044444445,83.62448411478243 126.57495466666667,83.62493109017446 126.57459911111111,83.62526043796399 126.57426488888889,83.62546039808727 126.57413688888889,83.62555449669836 126.57377422222223,83.62587207823265 126.57358222222223,83.62617789562432 126.57348266666666,83.62627199291548 126.57258666666668,83.62689538309701 126.57201066666669,83.62721295630624 126.5713991111111,83.62767166968311 126.57137777777777,83.62777752603205 126.57137066666668,83.62789514394063 126.57131377777779,83.62814214066829 126.57085155555556,83.62942415214142 126.5705457777778,83.63032977390813 126.57026844444445,83.63102368103601 126.57005511111112,83.63159996963124 126.56979199999999,83.63222329488448 126.5691591111111,83.63355224600798 126.5688177777778,83.63421082846077 126.56854755555555,83.63466947908898 126.5679928888889,83.63556324798576 126.56740977777778,83.63630412352353 126.56697600000001,83.63678627485595 126.56678400000001,83.63705674800397 126.56675555555556,83.63711554632519 126.56666311111113,83.63743305609196 126.56653511111112,83.63802103193787 126.56640711111112,83.63893826076344 126.5663288888889,83.63926751838181 126.56629333333333,83.63953797841165 126.56624355555556,83.63972612367603 126.56620800000002,83.63978491892925 126.56608711111113,83.6398437141149 126.565824,83.63982019604876 126.56571733333332,83.63976140083608 126.5654968888889,83.6397143646173 126.564672,83.63958501479263 126.56449422222224,83.63960853296689 126.56414577777778,83.63973788273209 126.56391822222223,83.63985547314391 126.5638328888889,83.63994954527878 126.56376888888889,83.6400553762237 126.56376177777778,83.64017296590578 126.56376177777778,83.64036110883487 126.56378311111112,83.64067859845873 126.56376888888889,83.64078442789551 126.56366222222223,83.64092553347064 126.56348444444444,83.64100784487644 126.56316444444444,83.64121950216884 126.56296533333335,83.641395882577 126.56266666666666,83.64176040016011 126.5624888888889,83.64203084701111 126.56227555555554,83.64238360162483 126.56208355555555,83.64265404518146 126.56167111111111,83.64333602693264 126.56125155555557,83.64407678991385 126.56103822222222,83.64454711004943 126.56091733333334,83.64488808944412 126.56064,83.64557004141585 126.560576,83.64572289147281 126.56042666666666,83.6459698021387 126.56031288888889,83.64629901450621 126.56013511111111,83.64660470980785 126.56002844444446,83.64675755677371 126.55985066666668,83.64709852143667 126.55970844444445,83.64728663889872 126.55960177777777,83.64747475566908 126.55948088888888,83.64763935727575 126.55931733333334,83.64779220115065 126.55904,83.64812140179194 126.55890488888889,83.64822721583388 126.55866311111112,83.64853289961476 126.55851377777779,83.64869749781724 126.55817955555557,83.64909723410437 126.55798755555557,83.64936764217474 126.55762488888888,83.64982615694086 126.5574257777778,83.65010831783152 126.5572408888889,83.65041399037375 126.55710577777779,83.65067263494464 126.55707022222222,83.65083722626358 126.55699911111111,83.651037086439 126.5569208888889,83.65133099704346 126.55677866666667,83.6517659816397 126.55661511111111,83.65213042534614 126.55662222222222,83.65230676814312 126.556736,83.65242432967017 126.55689244444444,83.65248311033237 126.55714133333333,83.65250662257836 126.55811555555556,83.65253013481353 126.5585991111111,83.65257715925146 126.55899022222222,83.65267120799766 126.55928888888889,83.65278876868733 126.55943111111111,83.65281228079286 126.55972266666669,83.65280052474142 126.55985777777778,83.65277701263051 126.55998577777777,83.65280052474142 126.560832,83.65311793718136 126.561408,83.65343534765222 126.56189155555555,83.65357641834058 126.56241777777778,83.65368222110158 126.5626168888889,83.65378802364378 126.56288,83.65398787229327 126.56327111111112,83.65435230017403 126.56381155555556,83.65524572528693 126.56411022222224,83.6556806766038 126.56432355555556,83.65609211363568 126.56437333333335,83.65622142173387 126.5645368888889,83.65672689570948 126.56459377777779,83.65698550837072 126.564672,83.65724411972491 126.56470044444444,83.65744395487607 126.56472177777778,83.65784362283716 126.56470755555556,83.65813749434632 126.56471466666667,83.65841960940735 126.56470044444444,83.65863119468233 126.56465066666667,83.6588310244165 126.56456533333335,83.65908962644342 126.56428088888889,83.6599006879596 126.56416,83.66013577585099 126.56398222222224,83.6604061255909 126.56384711111112,83.66064121116018 126.56354844444444,83.66106436246324 126.56321422222223,83.6616520668014 126.56308622222224,83.6618048688237 126.56275911111112,83.6623220415135 126.56255288888889,83.6625806258983 126.56244622222223,83.66282745522847 126.56232533333335,83.66321532748472 126.5622968888889,83.66327409575194 126.56217600000001,83.66381476064342 126.56211911111112,83.66401457013593 126.56199111111111,83.66464925393703 126.56179911111111,83.66610664620734 126.56174222222224,83.66676480975696 126.56171377777778,83.66741121214662 126.561728,83.66754049164479 126.561728,83.66774028659042 126.56174933333334,83.66794008075604 126.56191288888888,83.66838667665866 126.56196977777778,83.66858646830063 126.56202666666667,83.66884502103244 126.56203377777777,83.66904481088505 126.56212622222223,83.66929160903786 126.56216177777777,83.66965592794527 126.56211911111112,83.67004374844836 126.56213333333335,83.67032579787737 126.56208355555555,83.67067835747764 126.562048,83.67079587680468 126.56189155555555,83.67106617023268 126.56172088888889,83.6714657318156 126.56152888888889,83.67197105523242 126.56152888888889,83.67202981344542 126.56155022222222,83.67207681996726 126.5616,83.6721120748303 126.56166400000001,83.67212382644591 126.56179911111111,83.6721120748303 126.56187022222223,83.67208857159096 126.56193422222223,83.67204156507992 126.56208355555555,83.67186529027899 126.5622968888889,83.67158324933456 126.562368,83.67154799410721 126.56244622222223,83.67153624235935 126.56259555555555,83.67159500107158 126.562752,83.67177127680354 126.56301511111111,83.67232360349854 126.56323555555555,83.67295818425748 126.56329244444444,83.67308744974369 126.56380444444444,83.67362801096667 126.56388977777777,83.67373377227725 126.56403911111111,83.6739687966294 126.56418133333335,83.67434483334785 126.56420266666667,83.67454460173073 126.56420266666667,83.6751556531202 126.56425244444443,83.67623672616813 126.56433066666666,83.67662449680549 126.56442311111113,83.6770122645049 126.56449422222224,83.6774117796678 126.56457955555555,83.6775880353659 126.56461511111112,83.67770553882741 126.56463644444445,83.67775254013645 126.56473600000001,83.6777760407748 126.56497777777778,83.67771728915872 126.56539022222223,83.6777290394873 126.5654968888889,83.67776429045696 126.56564622222224,83.67785829292404 126.56619377777778,83.67824605127564 126.5669048888889,83.6787748079298 126.5672888888889,83.67911555932349 126.56750222222222,83.67924480925868 126.56770133333333,83.67940930870412 126.56782222222222,83.67953855789749 126.56790755555556,83.67964430699473 126.56810666666668,83.67993805334068 126.56830577777778,83.68025529750071 126.56852622222222,83.68054904034 126.56866844444444,83.6806665370037 126.56892444444445,83.68083103187969 126.569408,83.68103077494698 126.5695217777778,83.68108952275958 126.57001955555556,83.68124226675675 126.57129244444445,83.68177099245793 126.57232355555557,83.68238195757701 126.57268622222223,83.6825581961599 126.57315555555557,83.68282842747504 126.57384533333334,83.68316915188225 126.57413688888889,83.68325139536492 126.5744,83.68328664253127 126.57452088888888,83.6832748934785 126.57519644444446,83.68332188967338 126.57578666666667,83.6832748934785 126.57588622222224,83.68331014062872 126.57592177777778,83.68334538775464 126.57594311111112,83.68339238388478 126.57595733333335,83.68352162302018 126.57576533333335,83.68473175545452 126.57570844444446,83.68496672930912 126.57570844444446,83.68501372395062 126.57572266666666,83.68503722125516 126.57580800000001,83.68504896990339 126.57609244444444,83.68499022663525 126.57716622222223,83.68483749382257 126.57728,83.68484924251663 126.57732977777778,83.6849314832997 126.57736533333333,83.6851664562374 126.57745066666666,83.68580087778122 126.57750755555556,83.68615333079667 126.57750755555556,83.68632955639427 126.5775928888889,83.68669375404002 126.5776,83.68695221531334 126.5776568888889,83.68736340101299 126.57772088888889,83.68758661472376 126.57772800000001,83.68776283538683 126.5777848888889,83.68789206348748 126.577792,83.68809177900134 126.57777066666667,83.68816226664369 126.577792,83.68826799792522 126.5777848888889,83.68839722475053 126.57782755555556,83.68850295554674 126.57785600000001,83.6886909208674 126.57804088888889,83.69045306218138 126.57806222222224,83.69087596707027 126.5781048888889,83.69136935169138 126.57817600000001,83.6918157432032 126.57822577777779,83.69190971986754 126.5782968888889,83.69200369635936 126.57908622222222,83.6926967676583 126.57934933333333,83.69277899583376 126.57943466666667,83.69277899583376 126.57965511111112,83.69272026143621 126.58000355555556,83.69270851454863 126.58003200000002,83.69268502076532 126.5802168888889,83.69266152697125 126.5805511111111,83.6925205639804 126.58069333333333,83.69250881704696 126.58087111111111,83.69239134756438 126.58109155555556,83.69227387781227 126.58112000000001,83.69222688983595 126.58114844444445,83.69210941970643 126.58118400000002,83.69205068454058 126.5812408888889,83.69185098447254 126.58132622222222,83.69168652500801 126.58148977777779,83.69146332917528 126.581632,83.6913810988863 126.58167466666667,83.69133411009042 126.5817671111111,83.69127537403494 126.58180977777779,83.69127537403494 126.58188799999999,83.69132236288473 126.5819591111111,83.69133411009042 126.582144,83.69128712125142 126.58229333333334,83.69118139620599 126.58238577777779,83.69122838514203 126.5826417777778,83.69122838514203 126.58269155555557,83.69120489067942 126.5827911111111,83.69122838514203 126.58291911111111,83.69121663791206 126.58295466666668,83.69116964896523 126.58299022222222,83.6911579017218 126.58325333333333,83.69111091272104 126.58343822222223,83.69114615447566 126.58360177777779,83.69112265997526 126.58370133333334,83.6911579017218 126.58390044444445,83.69112265997526 126.58408533333333,83.69098169274656 126.58414222222223,83.69088771437845 126.58412088888889,83.69077024117561 126.58405688888888,83.69068800977323 126.58401422222222,83.69058228349034 126.58385066666668,83.69039432511491 126.58384355555556,83.69035908284269 126.5838577777778,83.6902533558804 126.58379377777779,83.69015937617505 126.58384355555556,83.69011238625765 126.58385066666668,83.69007714379131 126.58383644444446,83.69003015379843 126.58375822222223,83.6899831637624 126.58362311111111,83.68994792120711 126.58355911111111,83.68987743602366 126.58355911111111,83.68983044584749 126.58367288888888,83.68980695074319 126.58369422222222,83.68978345562815 126.58369422222222,83.68975996050226 126.58364444444445,83.6897247177933 126.58361599999999,83.6897247177933 126.58360177777779,83.68970122264048 126.58364444444445,83.68965423230247 126.583744,83.68959549431935 126.58372977777779,83.68954850388435 126.58353777777779,83.68934879405418 126.58353066666668,83.68929005572056 126.58354488888888,83.68925481268803 126.58357333333333,83.68924306500513 126.58392177777779,83.68923131731952 126.58411377777777,83.68918432655018 126.58419911111112,83.68918432655018 126.58430577777777,83.68914908344487 126.58434844444446,83.68911384031526 126.58436977777777,83.6890785971614 126.58436266666668,83.6889611198066 126.58429155555557,83.68866742524007 126.58428444444445,83.6885734426229 126.58431288888889,83.68849120769127 126.58436266666668,83.68843246837352 126.58456888888888,83.68863218177884 126.58464,83.68866742524007 126.58468266666668,83.68866742524007 126.58480355555557,83.68860868612455 126.58496711111111,83.6883854768708 126.58503111111112,83.6883854768708 126.58518044444446,83.68850295554674 126.58524444444446,83.68850295554674 126.58536533333334,83.68845596410873 126.58563555555557,83.6882210062715 126.58567822222223,83.68820925835134 126.58571377777777,83.68824450210377 126.585792,83.6883854768708 126.58592,83.68852645124957 126.58617600000001,83.68870266867705 126.58631822222223,83.68871441648396 126.58655288888889,83.68858519045946 126.58660977777778,83.68859693829336 126.58670222222223,83.68870266867705 126.58683022222223,83.68879665105696 126.58689422222223,83.68883189440497 126.58696533333334,83.68884364218222 126.58702222222223,83.68882014662498 126.58727822222222,83.68853819909694 126.58731377777778,83.68852645124957 126.58733511111112,83.68853819909694 126.58729955555555,83.68864392960194 126.58737777777777,83.68873791208974 126.58738488888889,83.68889063326435 126.58741333333334,83.68898461529918 126.58748444444446,83.68900811078089 126.58749866666666,83.68894937205633 126.58756977777777,83.6889141287892 126.58766933333335,83.68906684943803 126.58776177777777,83.6890785971614 126.58785422222223,83.6890433539833 126.58788266666666,83.68900811078089 126.58788977777778,83.68898461529918 126.58784711111112,83.68884364218222 126.58785422222223,83.68882014662498 126.58787555555556,83.68882014662498 126.58806044444447,83.6889611198066 126.58813866666667,83.68898461529918 126.58817422222224,83.68897286755423 126.58818844444444,83.68893762430332 126.58807466666667,83.68890238102811 126.58816,83.68889063326435 126.58823111111111,83.68884364218222 126.58828088888889,83.68873791208974 126.588288,83.68853819909694 126.58830222222224,83.68847945983312 126.58836622222223,83.68830324163721 126.58839466666667,83.68827974583193 126.588672,83.68839722475053 126.58884977777778,83.6884207205019 126.58897066666667,83.6883854768708 126.58906311111112,83.6882210062715 126.58916977777778,83.68817401457466 126.58923377777778,83.68820925835134 126.58940444444444,83.68824450210377 126.58942577777778,83.68820925835134 126.58941155555556,83.6881270228346 126.58941866666667,83.68809177900134 126.58947555555555,83.68805653514374 126.58959644444444,83.68809177900134 126.58978844444444,83.68808003105148 126.58992355555556,83.68810352694845 126.59003733333333,83.68798604735579 126.59005155555556,83.68792730745832 126.59004444444444,83.68784507148864 126.58995200000001,83.68761011084723 126.58993777777778,83.68753962244449 126.5899448888889,83.68745738585199 126.58996622222223,83.68741039345406 126.58998755555555,83.68737514912728 126.59003733333333,83.68735165289598 126.59012266666667,83.68735165289598 126.59052088888889,83.68744563775653 126.59062755555556,83.68749263012208 126.59067733333333,83.68749263012208 126.59072,83.68748088203472 126.59076266666666,83.68743388965837 126.59080533333334,83.68733990477625 126.59081955555556,83.68722242343091 126.59084088888889,83.6871754308173 126.59088355555555,83.68715193449431 126.59108977777778,83.68715193449431 126.59114666666667,83.68721067528156 126.59127466666668,83.68725766786285 126.59136000000001,83.68725766786285 126.59152355555555,83.68721067528156 126.59155911111112,83.6872341715776 126.59159466666667,83.68733990477625 126.59165866666667,83.68743388965837 126.59170133333333,83.68745738585199 126.59176533333333,83.68745738585199 126.59182222222222,83.68742214155756 126.59187200000001,83.68737514912728 126.59190755555557,83.68731640852877 126.59196444444444,83.68726941600141 126.59201422222222,83.68725766786285 126.59217777777779,83.68732815665388 126.59232000000002,83.68735165289598 126.59241244444445,83.68730466040098 126.59243377777779,83.68725766786285 126.59232711111113,83.68708144546059 126.59233422222222,83.68705794909444 126.59242666666667,83.68706969727887 126.59249066666668,83.68710494181595 126.59254755555556,83.68710494181595 126.5926471111111,83.68705794909444 126.59267555555556,83.68694046710198 126.59272533333333,83.6868112365988 126.59283200000002,83.68667025749595 126.59293155555557,83.68657627121165 126.59296000000002,83.68652927800477 126.59298844444444,83.68641179479889 126.59302400000001,83.68636480144099 126.59306666666667,83.68636480144099 126.59313777777778,83.6864587881136 126.59319466666668,83.6863765497845 126.5932088888889,83.68632955639427 126.59323733333333,83.68634130474588 126.59325866666667,83.68641179479889 126.59329422222223,83.6864587881136 126.5933368888889,83.6864587881136 126.59342933333333,83.68640004646343 126.59345066666667,83.68636480144099 126.59345066666667,83.68625906622803 126.59347911111111,83.68622382110853 126.5935288888889,83.68621207272994 126.59382755555556,83.6863765497845 126.5940337777778,83.68632955639427 126.59409066666667,83.68634130474588 126.59433244444445,83.686306059683 126.59435377777778,83.68625906622803 126.59433244444445,83.68612983400448 126.59441777777779,83.68608284038771 126.59444622222222,83.68604759514686 126.59446044444445,83.68600060145461 126.5943751111111,83.68588311703525 126.59436799999999,83.68584787165682 126.59441066666668,83.68581262625416 126.59492977777779,83.6856833929034 126.59503644444445,83.68570688990054 126.59522133333334,83.6856598958955 126.59543466666668,83.68563639887677 126.59565511111111,83.68555415922634 126.59660088888889,83.68540142809645 126.59688533333333,83.68536618238635 126.59701333333334,83.685424925223 126.59707022222223,83.685495416538 126.59719111111112,83.68569514140333 126.59725511111111,83.68584787165682 126.59732622222222,83.68607109197681 126.59740444444445,83.68615333079667 126.59768177777778,83.68623556948438 126.59785955555557,83.68641179479889 126.59791644444445,83.68642354313158 126.59796622222223,83.68641179479889 126.59811555555557,83.68631780803997 126.59816533333334,83.68631780803997 126.59823644444445,83.68634130474588 126.598336,83.68644703978896 126.59852088888888,83.6865057813852 126.59856355555557,83.68654102631055 126.59863466666667,83.68664676094104 126.59863466666667,83.68667025749595 126.59859911111111,83.68672899883599 126.59860622222223,83.68683473307819 126.59862044444445,83.68688172600461 126.59872,83.68714018632875 126.59881955555556,83.68728116413732 126.59881244444446,83.68733990477625 126.59878400000001,83.68741039345406 126.59866311111112,83.68813877077368 126.59868444444446,83.6882210062715 126.59879111111111,83.68827974583193 126.59870577777778,83.68836198110327 126.59869866666666,83.68847945983312 126.598656,83.68851470339952 126.59864177777777,83.68854994694162 126.59868444444446,83.68871441648396 126.59871288888888,83.68876140768472 126.59887644444446,83.68886713772866 126.59889066666666,83.68889063326435 126.59878400000001,83.68892587654761 126.59854933333334,83.68885538995681 126.59831466666667,83.68883189440497 126.59825777777777,83.68883189440497 126.59821511111112,83.68885538995681 126.59810133333335,83.68900811078089 126.59799466666666,83.6890785971614 126.59797333333334,83.68911384031526 126.59795911111111,83.68933704639284 126.59792355555557,83.68944277524781 126.59791644444445,83.68951326102977 126.59805866666666,83.68986568848368 126.59809422222223,83.69003015379843 126.59811555555557,83.69005364880026 126.59817955555557,83.69003015379843 126.59826488888889,83.69006539629711 126.59830044444446,83.69012413374105 126.59827911111111,83.6902298609702 126.59831466666667,83.69027685077975 126.59837866666666,83.69030034566836 126.59840711111111,83.69033558798102 126.59841422222223,83.69047655698908 126.59856355555557,83.69064102034112 126.59847822222223,83.69078198850804 126.59848533333334,83.69081723048909 126.59862755555557,83.6909581981707 126.59866311111112,83.69105217640944 126.59880533333335,83.69125187959389 126.59886933333334,83.69153381217495 126.59899022222223,83.69166303075565 126.59908977777778,83.691803996108 126.59919644444446,83.69187447863862 126.59933866666667,83.69200369635936 126.59938133333334,83.69210941970643 126.59949511111111,83.69222688983595 126.59953066666667,83.69239134756438 126.59958755555554,83.69248532317201 126.59969422222223,83.69263803316639 126.59977244444445,83.69264978007016 126.59977244444445,83.69268502076532 126.59967288888889,83.69272026143621 126.59959466666666,83.69279074270521 126.59958044444446,83.69286122387714 126.599616,83.6930491731946 126.59953066666667,83.69320188150687 126.59949511111111,83.69333109587681 126.5994168888889,83.6934603099206 126.59931733333335,83.69355428356577 126.59928177777778,83.69361301700638 126.59919644444446,83.69385969672108 126.59906133333334,83.69398890943056 126.59903288888889,83.69404764237251 126.59902577777778,83.69411812181387 126.59911822222223,83.69437654560204 126.599168,83.6944235316052 126.59931733333335,83.69441178510843 126.59939555555555,83.69436479909453 126.59956622222224,83.6943413060714 126.59978666666666,83.69441178510843 126.60009955555554,83.69447051756521 126.60022044444446,83.69445877107925 126.60033422222223,83.6945057570069 126.60046933333335,83.69463496808561 126.60066133333335,83.69470544671832 126.60084622222223,83.6947994180777 126.60098133333335,83.6948229108906 126.60113066666666,83.69492862841516 126.60120888888889,83.69506958477496 126.60128711111112,83.69512831647698 126.60129422222224,83.6951753017901 126.60128,83.69521054074664 126.6012728888889,83.69530451117879 126.60123733333334,83.69539848143845 126.60123022222223,83.69557467521035 126.60129422222224,83.6956803911824 126.60130844444444,83.69572737598875 126.60137955555555,83.69578610693613 126.60135111111111,83.69584483781608 126.60134400000001,83.69589182247154 126.60136533333335,83.69598579165307 126.60130844444444,83.696114998996 126.60123733333334,83.6962207138522 126.60117333333335,83.69626769816267 126.60106666666667,83.69629119030174 126.60097422222223,83.69623245993384 126.60064711111112,83.6958800763117 126.60054755555555,83.69583309164545 126.60041955555555,83.6957978531175 126.60039822222224,83.69580959929617 126.60034133333335,83.6958800763117 126.60033422222223,83.69597404551479 126.60035555555555,83.69603277617912 126.60049066666666,83.69620896776786 126.60052622222223,83.69627944423353 126.60047644444445,83.69633817454748 126.600128,83.69657309512954 126.60007822222224,83.69663182510658 126.59990755555555,83.6967257929297 126.59985066666667,83.69679626868387 126.59970844444446,83.69689023620518 126.59946666666666,83.6970899166152 126.59926755555556,83.69721912117132 126.59908977777778,83.69738356286203 126.59871288888888,83.69761847864672 126.59847111111111,83.6978416476437 126.59834311111112,83.69791212186166 126.59831466666667,83.69791212186166 126.59822933333334,83.69798259598261 126.59810133333335,83.698029578676 126.59808,83.69806481566775 126.59793777777777,83.69818227213173 126.59781688888889,83.69825274588078 126.59762488888889,83.6984406754039 126.59741866666668,83.69858162209353 126.597312,83.69868733185606 126.59681422222222,83.69901620527688 126.59671466666668,83.699121914142 126.59647288888888,83.69932158584729 126.59639466666668,83.6993568219497 126.59636622222223,83.69939205802788 126.59631644444445,83.6994977661169 126.59630222222222,83.69957998336861 126.59632355555557,83.6996504551935 126.59637333333333,83.69970918164017 126.59640888888889,83.69977965328721 126.596416,83.69982663433137 126.59640177777779,83.69995583198045 126.596288,83.70031993269177 126.59619555555557,83.70046087420738 126.59618133333333,83.70050785462635 126.59615288888888,83.7008132262988 126.59612444444446,83.7009071864469 126.59599644444445,83.70109510622581 126.595968,83.70117732091214 126.59598222222222,83.70124779053822 126.59601066666667,83.70128302531486 126.59616,83.70141221928849 126.59623822222223,83.70154141293605 126.59630933333334,83.70170584074323 126.59630222222222,83.70175282001972 126.59625955555556,83.70181154405469 126.59626666666668,83.70188201280774 126.59625955555556,83.70205818426601 126.5962737777778,83.70219912099611 126.59620977777779,83.70241052536377 126.59618844444445,83.70253971649203 126.59619555555557,83.70257495037954 126.59622399999999,83.70259843962438 126.59623111111111,83.7025866950033 126.59634488888888,83.70231656797482 126.59640888888889,83.70219912099611 126.59672177777777,83.70172933038685 126.59672888888889,83.70162362690566 126.59675022222223,83.70156490265512 126.59678577777777,83.70152966807248 126.59682133333334,83.70152966807248 126.59684977777778,83.70155315779692 126.59685688888888,83.70160013721352 126.59684266666667,83.70168235108885 126.59693511111111,83.70185852323416 126.59697777777777,83.70202295002284 126.59696355555556,83.70216388684996 126.59693511111111,83.70225784451912 126.59687822222223,83.70231656797482 126.59681422222222,83.7024222700253 126.59673599999999,83.70251622722023 126.59666488888888,83.70288030972199 126.59666488888888,83.7029860106085 126.59670755555557,83.70304473322892 126.59675733333334,83.70307996676883 126.59681422222222,83.70330311195858 126.59685688888888,83.70335008976932 126.59689955555557,83.70338532309907 126.59700622222222,83.70340881197212 126.59704888888889,83.70339706753697 126.59712,83.70340881197212 126.59738311111111,83.70356148938421 126.59743288888889,83.70360846695786 126.59748266666668,83.70374939942016 126.59755377777778,83.70385509851228 126.59759644444445,83.70404300747055 126.59758933333335,83.70410172887858 126.59759644444445,83.7041721944793 126.59763911111112,83.70446580010494 126.59758222222223,83.70502951818618 126.59754666666669,83.70514695867182 126.59755377777778,83.70519393479066 126.59764622222222,83.70519393479066 126.59774577777777,83.70507649441275 126.59779555555556,83.70505300630487 126.59786666666668,83.70515870270557 126.59790933333335,83.70519393479066 126.59796622222223,83.70520567881363 126.59798044444446,83.70519393479066 126.59798755555556,83.70513521463536 126.59802311111112,83.70506475036015 126.59813688888889,83.70495905376546 126.59819377777778,83.70495905376546 126.59867733333334,83.70508823846268 126.59881955555556,83.70508823846268 126.59911822222223,83.70495905376546 126.59918933333334,83.70494730968593 126.59924622222223,83.70494730968593 126.59929600000001,83.70497079784232 126.59943822222223,83.70494730968593 126.59949511111111,83.70495905376546 126.59955911111112,83.70494730968593 126.59962311111111,83.7049003333408 126.59968711111112,83.70491207743112 126.59975111111112,83.7049003333408 126.59987911111112,83.70495905376546 126.59998577777777,83.70505300630487 126.60020622222223,83.70520567881363 126.60032711111111,83.70525265487856 126.60048355555556,83.70534660687915 126.60058311111112,83.70546404663742 126.6006328888889,83.7056284618464 126.60061866666666,83.70567543752341 126.60046222222223,83.70585159592832 126.60041955555555,83.70586333980043 126.60036266666667,83.70583985205354 126.60029866666666,83.70585159592832 126.60046933333335,83.70599252221584 126.60046222222223,83.70602775372713 126.60041244444446,83.70602775372713 126.60030577777778,83.70598077837334 126.60029866666666,83.70600426605563 126.6003128888889,83.7060394975588 126.60039111111112,83.70610996049246 126.60046222222223,83.70613344811545 126.60047644444445,83.70615693572768 126.60041244444446,83.70613344811545 126.6003128888889,83.7061451919229 126.60032711111111,83.70616867952972 126.60041955555555,83.70620391091975 126.600448,83.70619216712578 126.60047644444445,83.70621565471106 126.600384,83.70623914228554 126.60026311111112,83.7063448362375 126.60022044444446,83.7064270424937 126.60020622222223,83.70653273605771 126.60022755555555,83.7065562234867 126.60035555555555,83.70652099233912 126.60039822222224,83.70654447977356 126.60046222222223,83.70663842940351 126.60047644444445,83.70668540415383 126.60046933333335,83.70673237886106 126.60051200000001,83.70684981544053 126.60051200000001,83.7069202772589 126.600448,83.70707294419938 126.600448,83.70716689285959 126.60048355555556,83.7071903799977 126.60071822222223,83.7073195590647 126.60078933333335,83.7073078155266 126.60081066666666,83.70727258489623 126.6008248888889,83.70717863642999 126.60084622222223,83.70711991855104 126.60090311111112,83.7070494570074 126.60100977777778,83.70686155908365 126.60112355555556,83.70676760986319 126.60116622222223,83.70667366047027 126.60125155555555,83.70659145461008 126.60156444444443,83.70652099233912 126.60162133333334,83.7064857611673 126.6018488888889,83.7064270424937 126.6021688888889,83.70636832375274 126.60224000000001,83.7063800675063 126.60227555555555,83.70641529875087 126.60227555555555,83.70645052997122 126.60221866666667,83.7065679671972 126.60215466666666,83.70666191678403 126.60199111111112,83.70682632814618 126.60193422222224,83.70693202088589 126.60192711111112,83.70700248259115 126.60190577777779,83.7070377134074 126.60190577777779,83.70706120060476 126.60181333333335,83.7071903799977 126.6017848888889,83.7073195590647 126.60179911111112,83.70733130260007 126.60184177777778,83.7073078155266 126.60187022222223,83.7073195590647 126.60179911111112,83.7074604813115 126.60182044444444,83.70747222481457 126.60187022222223,83.7074369942973 126.60189866666667,83.7074604813115 126.60182044444444,83.70773058120031 126.60177777777778,83.70781278523147 126.60172800000001,83.7078597589043 126.60173511111113,83.70790673253404 126.60176355555555,83.70790673253404 126.6017848888889,83.70788324572456 126.60181333333335,83.70789498913066 126.6017848888889,83.70794196272807 126.60171377777777,83.70800067966422 126.60172088888889,83.70802416641979 126.60175644444445,83.70801242304336 126.60177066666667,83.70803590979358 126.60164977777778,83.70820031674342 126.60159288888889,83.7083882097539 126.60152177777778,83.7085056425353 126.601408,83.708564358825 126.60135822222223,83.70863481828376 126.60131555555556,83.70871702086302 126.60129422222224,83.70879922331038 126.60123022222223,83.70888142562572 126.60118755555555,83.70899885727584 126.60113066666666,83.709092802402 126.60110933333334,83.70917500424596 126.60083911111111,83.70972692749473 126.60081777777778,83.70980912832059 126.60079644444444,83.70984435720554 126.600768,83.70998527250303 126.60071822222223,83.71006747291412 126.60068266666667,83.71017315896302 126.60066844444447,83.71026710193446 126.60053333333335,83.71068984317283 126.60053333333335,83.71072507145178 126.60045511111112,83.71092469790811 126.60041244444446,83.71123000745347 126.600192,83.71161751310075 126.600064,83.71200501581521 126.59995733333335,83.71221637969605 126.59992177777778,83.71226334932885 126.59990044444446,83.71223986451781 126.599872,83.71223986451781 126.59973688888888,83.7123572884652 126.59966577777777,83.71246296978755 126.59952355555555,83.71262736252213 126.59939555555555,83.71273304328705 126.59936,83.71272130099055 126.59933155555555,83.712662589468 126.59932444444446,83.712592135552 126.59933866666667,83.71254516622079 126.59926755555556,83.7123572884652 126.59930311111111,83.71232206130927 126.59922488888888,83.7124394850681 126.59918222222223,83.71246296978755 126.59912533333335,83.71245122742916 126.59908266666666,83.71241600033787 126.59906844444446,83.71231031891855 126.59903288888889,83.71233380369725 126.59897600000001,83.71249819684652 126.59896177777777,83.71250993919415 126.59895466666666,83.71258039322322 126.59889777777778,83.71278001244585 126.5989048888889,83.71297963089017 126.59888355555557,83.71300311536189 126.59885511111112,83.7129678886503 126.59883377777777,83.7129678886503 126.59885511111112,83.71312053755881 126.598848,83.71323795948642 126.59886222222222,83.71334363899103 126.59885511111112,83.71335538114477 126.59878400000001,83.71329667034922 126.59867733333334,83.71310879535125 126.59869866666666,83.71328492818208 126.59869155555558,83.71340234973266 126.59870577777778,83.71346106040701 126.59867733333334,83.71344931827751 126.59862755555557,83.71333189683463 126.598592,83.71333189683463 126.59862755555557,83.71353151312735 126.59862044444445,83.71360196575071 126.5985848888889,83.71361370784518 126.59849244444446,83.71341409187293 126.59842844444445,83.71323795948642 126.59841422222223,83.71314402196589 126.59832177777777,83.71314402196589 126.59825066666666,83.71322621730579 126.59820088888888,83.71334363899103 126.59818666666666,83.71342583401051 126.59812266666667,83.71353151312735 126.59812977777777,83.71360196575071 126.59812266666667,83.71363719202606 126.59805155555557,83.71368416035546 126.59804444444445,83.7138015809905 126.59792355555557,83.71393074337801 126.59785955555557,83.71404816344754 126.59770311111112,83.7142360349987 126.59766755555557,83.71430648665267 126.59761777777777,83.71436519629026 126.59759644444445,83.71444738966977 126.59755377777778,83.71451784103293 126.59753955555557,83.7146000341674 126.59757511111111,83.71468222716994 126.59758933333335,83.71476442004052 126.597504,83.71485835458823 126.59748266666668,83.71489357999917 126.59748266666668,83.71494054717607 126.59749688888888,83.7149757725305 126.59756088888889,83.71503448140064 126.59758933333335,83.7150814484483 126.59759644444445,83.71516364067807 126.59751111111112,83.71525757449332 126.59746844444446,83.71541021657562 126.59741155555557,83.71545718327859 126.59736888888888,83.71546892494763 126.59726933333334,83.71546892494763 126.59710577777777,83.71541021657562 126.59702044444445,83.71541021657562 126.59698488888888,83.7154336999325 126.59697066666668,83.71546892494763 126.59698488888888,83.71552763325235 126.59700622222222,83.71555111655536 126.59711288888889,83.7156098247658 126.59715555555557,83.71565679128572 126.59716977777778,83.7159268479391 126.59715555555557,83.71600903881179 126.5971271111111,83.71605600496552 126.59688533333333,83.71613819563082 126.59669333333333,83.7163378009831 126.59660088888889,83.71632605951334 126.59651555555557,83.7163378009831 126.59640177777779,83.71649043984509 126.5962737777778,83.71656088839713 126.59618844444445,83.71657262981307 126.5961031111111,83.7166313368523 126.596032,83.71665481964911 126.59599644444445,83.71664307825205 126.59593244444446,83.71652566413323 126.59579022222222,83.71640824974517 126.59566222222223,83.71625561063817 126.5955697777778,83.71617342016131 126.59533511111111,83.71603252189402 126.59488,83.71580943217788 126.59483733333333,83.71576246579798 126.59464533333333,83.71566853290898 126.59460266666667,83.71563330803116 126.59447466666667,83.71546892494763 126.59438222222222,83.71541021657562 126.59432533333333,83.71533976644032 126.5942968888889,83.71535150813628 126.59443911111111,83.7155393749052 126.59460977777779,83.71572724098482 126.59475911111112,83.71596207261499 126.59483733333333,83.71603252189402 126.59498666666667,83.71609122955253 126.59516444444445,83.71622038616425 126.59543466666668,83.71646695697285 126.59561244444446,83.71670178521049 126.59589688888889,83.71718317973071 126.5959537777778,83.71731233358807 126.59605333333334,83.7174180046836 126.59612444444446,83.71753541675619 126.59666488888888,83.71848644462167 126.59678577777777,83.71865081801796 126.596864,83.7187212635977 126.59703466666669,83.71892085888064 126.59722666666669,83.7191674166854 126.59734044444446,83.71934352867618 126.59741866666668,83.71951964006128 126.59746844444446,83.71959008444573 126.59754666666669,83.71975445429919 126.59786666666668,83.72045889055205 126.59798044444446,83.72067021953816 126.59800888888888,83.72077588370414 126.59803022222223,83.72079936460031 126.5980728888889,83.72091676891961 126.59811555555557,83.72095199016289 126.59813688888889,83.72094024975117 126.598144,83.7209050284998 126.59811555555557,83.72082284548567 126.59810133333335,83.72064673858277 126.59805155555557,83.72047063107416 126.59805155555557,83.72037670682192 126.59802311111112,83.72030626351966 126.59802311111112,83.72025930126432 126.597888,83.72010667363699 126.59784533333334,83.71998926746028 126.59781688888889,83.71984837969285 126.597824,83.71980141701755 126.59780977777777,83.71974271361287 126.59776000000001,83.71963704731485 126.59773155555557,83.71951964006128 126.59773155555557,83.71943745482362 126.59771733333334,83.7193670102292 126.59745422222223,83.71908523088237 126.59744,83.71899130408885 126.59734044444446,83.71890911800318 126.59714133333334,83.71855689042755 126.59694222222222,83.71835729372584 126.59690666666668,83.71828684764535 126.59690666666668,83.71825162456878 126.59694222222222,83.71818117834289 126.596992,83.71820466042895 126.59704888888889,83.71820466042895 126.59717688888888,83.71811073202014 126.59721955555557,83.71793461578912 126.597248,83.71787591024419 126.59729066666668,83.7178641691271 126.59746133333334,83.71792287468551 126.59749688888888,83.71791113357922 126.59762488888889,83.71792287468551 126.59763911111112,83.71795809798826 126.59765333333334,83.71807550882238 126.59772444444445,83.71816943729584 126.59780266666668,83.71823988353785 126.59797333333334,83.71831032968296 126.59804444444445,83.71835729372584 126.59812977777777,83.71836903472982 126.59815822222222,83.71835729372584 126.59832888888889,83.71842773970943 126.598464,83.71853340850305 126.59850666666667,83.71854514946665 126.59854933333334,83.71853340850305 126.59870577777778,83.71868604081996 126.598848,83.71873300451823 126.59893333333335,83.7188034499849 126.59898311111111,83.7188034499849 126.59906133333334,83.71870952267446 126.59929600000001,83.71859211329416 126.59934577777777,83.71850992656775 126.59936,83.71846296266486 126.59936,83.71840425772567 126.59934577777777,83.71834555271914 126.59928888888889,83.71822814250424 126.59926755555556,83.71808724989097 126.59923911111112,83.71801680343896 126.59920355555555,83.71794635689002 126.59911111111111,83.71782894575976 126.59911822222223,83.71775849895236 126.59919644444446,83.71765282855952 126.59920355555555,83.71760586387049 126.59917511111112,83.71754715794863 126.59901155555556,83.71745322833365 126.59897600000001,83.71740626346154 126.59896888888889,83.71719492100395 126.59893333333335,83.71708924944804 126.59898311111111,83.71699531899301 126.59899733333334,83.71693661237113 126.59897600000001,83.71688964702516 126.59889066666666,83.71683094028212 126.59886933333334,83.71679571620399 126.59886222222222,83.71674875072878 126.59888355555557,83.7166900438242 126.59891911111112,83.71665481964911 126.59896888888889,83.7166313368523 126.59911111111111,83.71665481964911 126.59921066666666,83.71673700935322 126.59928888888889,83.71685442298741 126.59933866666667,83.71687790568194 126.59952355555555,83.71686616433601 126.59963022222223,83.71691312970353 126.59968711111112,83.71703054293383 126.59972266666666,83.71705402554761 126.5998008888889,83.71715969717621 126.60004977777778,83.71725362732967 126.60027022222224,83.71738278100932 126.6004408888889,83.71755889913837 126.60047644444445,83.71757064032546 126.60051911111113,83.7176293462204 126.60067555555555,83.71772327551233 126.60072533333334,83.71777024009364 126.6007608888889,83.7178641691271 126.60085333333335,83.71796983908378 126.600896,83.71808724989097 126.60090311111112,83.71813421413847 126.60084622222223,83.71813421413847 126.60083911111111,83.71814595519363 126.60084622222223,83.71816943729584 126.60091733333334,83.71827510662253 126.60094577777778,83.71827510662253 126.60102400000001,83.71835729372584 126.60109511111112,83.71845122168239 126.60110933333334,83.71849818559605 126.60120177777777,83.71859211329416 126.60128711111112,83.71879170908053 126.60130844444444,83.71890911800318 126.60129422222224,83.71896782236354 126.60130133333335,83.71900304494748 126.60132266666666,83.7190265266566 126.60155022222223,83.71908523088237 126.60162133333334,83.71906174920016 126.60159288888889,83.71901478580338 126.60149333333335,83.71897956322756 126.60141511111112,83.71890911800318 126.60141511111112,83.71887389535462 126.60145777777778,83.71886215446641 126.60160711111112,83.71894434062747 126.60167111111112,83.71901478580338 126.60174222222223,83.71906174920016 126.60188444444444,83.71910871255386 126.60193422222224,83.71909697171947 126.6018488888889,83.71895608149687 126.60173511111113,83.71865081801796 126.6016568888889,83.71856863138578 126.60173511111113,83.71855689042755 126.601792,83.7186273361365 126.60183466666666,83.7186273361365 126.60189155555555,83.71866255895463 126.60192711111112,83.71870952267446 126.60200533333332,83.71876822726367 126.60201955555556,83.71875648635123 126.60200533333332,83.71870952267446 126.6019768888889,83.71866255895463 126.60189866666667,83.7186273361365 126.60182755555556,83.71855689042755 126.60176355555555,83.71845122168239 126.60174222222223,83.71835729372584 126.60169955555556,83.7182985886655 126.60162133333334,83.71811073202014 126.60156444444443,83.71806376775109 126.60144355555555,83.7178641691271 126.60142933333334,83.71779372236816 126.60135111111111,83.71774675780838 126.60132266666666,83.71760586387049 126.60122311111112,83.71744148711966 126.6011448888889,83.71738278100932 126.60110222222224,83.7173240748317 126.60107377777778,83.7172418860699 126.60103822222223,83.71696009502796 126.60087466666667,83.71685442298741 126.60081066666666,83.71674875072878 126.60079644444444,83.71665481964911 126.60073244444443,83.71650218127715 126.60064000000001,83.71641999119609 126.60062577777778,83.7163378009831 126.60059733333334,83.71630257656572 126.60059022222224,83.71625561063817 126.60039822222224,83.7159268479391 126.60039111111112,83.715774207397 126.60036266666667,83.7156920161474 126.60032000000001,83.71562156639985 126.60024177777778,83.71555111655536 126.60019911111112,83.71548066661396 126.60017777777777,83.7153984748931 126.60018488888889,83.71531628304035 126.60001422222223,83.7150814484483 126.59997866666666,83.71498751430991 126.60002133333334,83.71487009639455 126.60002133333334,83.7147879036936 126.59992177777778,83.7146000341674 126.59990755555555,83.71445913157038 126.5999288888889,83.71437693820971 126.59997866666666,83.71432997051579 126.60002133333334,83.7142360349987 126.60007111111112,83.7142125510925 126.60016355555555,83.71408338941589 126.60019911111112,83.71405990543971 126.60037688888889,83.71404816344754 126.60041244444446,83.71409513139997 126.6006328888889,83.71425951889412 126.60070400000001,83.71429474471708 126.60093155555555,83.71430648665267 126.60100266666667,83.71427126083783 126.60104533333335,83.71427126083783 126.60108088888889,83.71438868012643 126.60120888888889,83.71449435725597 126.60120177777777,83.71458829229914 126.6012728888889,83.71471745270208 126.60132977777778,83.71477616186843 126.60137244444444,83.71484661277921 126.60140088888889,83.71499925608666 126.60145777777778,83.71517538241437 126.6015288888889,83.71516364067807 126.60157866666667,83.7150931902035 126.60167111111112,83.71503448140064 126.60172800000001,83.71502273963199 126.60175644444445,83.7150462231666 126.60175644444445,83.71506970669043 126.60177066666667,83.7150814484483 126.60179911111112,83.7150814484483 126.60179911111112,83.71517538241437 126.60186311111111,83.71519886587897 126.60189155555555,83.71523409105565 126.60189866666667,83.7153280247417 126.60187733333335,83.71541021657562 126.60187733333335,83.7155158915968 126.60189155555555,83.71555111655536 126.60201955555556,83.71556285820284 126.60212622222224,83.7155393749052 126.60216177777778,83.71557459984763 126.60218311111112,83.7156450496598 126.60222577777778,83.71566853290898 126.60231822222224,83.7156450496598 126.60235377777778,83.71559808312912 126.60241066666667,83.71556285820284 126.60252444444444,83.7155393749052 126.60260266666667,83.71546892494763 126.60266666666666,83.71545718327859 126.60284444444444,83.71548066661396 126.60292266666667,83.7154336999325 126.60307200000001,83.7154454416069 126.60312177777779,83.7154219582554 126.60315022222224,83.71536324982952 126.60324266666667,83.71524583277585 126.60328533333333,83.71523409105565 126.60331377777779,83.71524583277585 126.60335644444444,83.7152223493328 126.60348444444445,83.71506970669043 126.60352711111112,83.71506970669043 126.60362666666667,83.71501099786067 126.60372622222222,83.71501099786067 126.60382577777779,83.71492880538588 126.60387555555556,83.71491706359302 126.60396800000001,83.71494054717607 126.60408177777778,83.71501099786067 126.60413866666667,83.7150814484483 126.60417422222221,83.7150814484483 126.60423822222222,83.71512841545288 126.60433777777779,83.71523409105565 126.60439466666668,83.71524583277585 126.60452266666667,83.71521060760722 126.60464355555555,83.71526931620812 126.60478577777779,83.71528105792024 126.60492800000002,83.7153749915201 126.6050488888889,83.7155393749052 126.6051128888889,83.71557459984763 126.6052551111111,83.715774207397 126.60534755555555,83.71585639851469 126.60539022222223,83.71593858950044 126.60566044444445,83.71611471259708 126.60574577777778,83.71620864466755 126.6059591111111,83.71631431804087 126.60605866666667,83.71640824974517 126.60608711111111,83.71644347408986 126.60610133333333,83.71649043984509 126.60616533333334,83.71656088839713 126.60630044444444,83.71664307825205 126.60654933333333,83.71657262981307 126.60663466666668,83.71660785404467 126.60672711111111,83.71660785404467 126.6068551111111,83.71657262981307 126.60720355555556,83.71653740555723 126.6073528888889,83.71649043984509 126.60769422222222,83.71643173264434 126.60777244444445,83.71639650829155 126.6080071111111,83.71646695697285 126.60812088888889,83.71656088839713 126.60813511111111,83.71659611263684 126.60813511111111,83.71670178521049 126.6081991111111,83.71687790568194 126.60831999999999,83.71704228424207 126.60856888888888,83.71713621461089 126.60863288888889,83.71719492100395 126.6086897777778,83.7172771098411 126.608704,83.7173240748317 126.60867555555556,83.71746496954495 126.60867555555556,83.71752367556104 126.60855466666668,83.71771153436023 126.60855466666668,83.7178054635014 126.60856888888888,83.71784068688488 126.60859022222222,83.71787591024419 126.60862577777779,83.71788765135855 126.60868266666668,83.71794635689002 126.60891022222222,83.71799332126676 126.60895288888888,83.71808724989097 126.60897422222223,83.71816943729584 126.60899555555557,83.7181576962461 126.609024,83.71806376775109 126.60903822222222,83.71805202667707 126.60909511111112,83.71813421413847 126.60912355555557,83.71836903472982 126.60914488888889,83.71825162456878 126.609152,83.71811073202014 126.60906666666668,83.71800506235422 126.60896,83.71794635689002 126.60893866666667,83.71791113357922 126.60911644444445,83.71759412269152 126.60920177777777,83.7174180046836 126.609216,83.71735929854634 126.60920888888889,83.71723014480744 126.609152,83.71708924944804 126.60912355555557,83.71706576685042 126.60912355555557,83.71701880162291 126.60916622222223,83.71696009502796 126.60925155555556,83.71697183635233 126.60927288888888,83.71694835370087 126.60931555555557,83.71685442298741 126.60933688888889,83.7166313368523 126.609408,83.71653740555723 126.609728,83.71631431804087 126.60983466666669,83.71619690316817 126.60987733333334,83.71625561063817 126.60982044444445,83.71636128391457 126.60982044444445,83.71640824974517 126.60987733333334,83.71647869841034 126.61001244444445,83.71650218127715 126.61004088888889,83.71652566413323 126.61006222222223,83.71656088839713 126.61008355555556,83.71671352659408 126.61014755555557,83.71678397483922 126.61024,83.71671352659408 126.61038222222223,83.71637302537627 126.61051022222223,83.71626735212412 126.61055288888889,83.71625561063817 126.61070933333335,83.71627909360734 126.61080888888888,83.71636128391457 126.61088000000001,83.71649043984509 126.61096533333334,83.71679571620399 126.61109333333334,83.71701880162291 126.61118577777778,83.71738278100932 126.611264,83.71744148711966 126.611456,83.71750019316266 126.61152711111112,83.71755889913837 126.61169777777778,83.71748845195947 126.61174044444445,83.71750019316266 126.61181155555555,83.71748845195947 126.612032,83.71768805204806 126.61199644444446,83.7176997932055 126.611968,83.7176763108879 126.61194666666667,83.7176293462204 126.61195377777777,83.71760586387049 126.6120248888889,83.71755889913837 126.61216,83.71757064032546 126.6122168888889,83.71754715794863 126.61237333333334,83.71759412269152 126.61244444444446,83.71755889913837 126.61245866666667,83.71753541675619 126.61246577777777,83.71744148711966 126.6124088888889,83.7173475573108 126.6124088888889,83.7172771098411 126.61243022222223,83.71721840354232 126.61255111111112,83.71707750815057 126.61257244444445,83.71703054293383 126.61251555555555,83.71691312970353 126.61255111111112,83.71687790568194 126.61259377777778,83.7169013883657 126.61262933333335,83.71686616433601 126.61260088888889,83.71680745756603 126.61258666666666,83.71673700935322 126.61266488888889,83.7168191989254 126.61276444444447,83.71687790568194 126.61290666666666,83.71683094028212 126.61308444444444,83.71683094028212 126.61309155555556,83.71687790568194 126.61308444444444,83.71693661237113 126.61309866666666,83.71694835370087 126.61320533333334,83.7169013883657 126.61326933333335,83.71678397483922 126.61329777777777,83.7167604921016 126.61331200000001,83.71678397483922 126.61328355555555,83.7169013883657 126.61329066666667,83.71691312970353 126.6133688888889,83.71685442298741 126.61339022222224,83.71679571620399 126.61332622222223,83.71670178521049 126.61331911111112,83.71667830243518 126.61332622222223,83.71665481964911 126.61345422222223,83.7166900438242 126.61348266666667,83.71667830243518 126.61346844444444,83.71654914697852 126.61348266666667,83.71647869841034 126.61352533333334,83.71644347408986 126.61359644444444,83.7163378009831 126.61360355555556,83.71631431804087 126.61359644444444,83.71631431804087 126.61358933333335,83.71638476683526 126.61361777777778,83.71640824974517 126.61365333333335,83.7163378009831 126.61373155555556,83.71626735212412 126.61374577777778,83.71623212765824 126.61376000000001,83.71602078035426 126.61368177777778,83.71586814009216 126.613568,83.71572724098482 126.61354666666666,83.71566853290898 126.61355377777778,83.71559808312912 126.61361066666667,83.71548066661396 126.61361066666667,83.7153280247417 126.61359644444444,83.71521060760722 126.61351111111112,83.71502273963199 126.61349688888889,83.71479964551612 126.61346133333335,83.71470571086073 126.613376,83.7146000341674 126.61313422222223,83.71449435725597 126.61307733333335,83.71445913157038 126.6130488888889,83.71440042204048 126.61304177777778,83.71437693820971 126.613056,83.71428300277879 126.61313422222223,83.71418906717554 126.61312711111113,83.71408338941589 126.61309155555556,83.71394248539707 126.61303466666666,83.71382506508516 126.61288533333335,83.71367241827716 126.61266488888889,83.71333189683463 126.61260088888889,83.71310879535125 126.61250133333334,83.712662589468 126.61244444444446,83.71256865089178 126.61243733333335,83.71253342388128 126.61238755555556,83.71249819684652 126.61238044444445,83.71252168153904 126.61238044444445,83.71254516622079 126.61240177777778,83.71256865089178 126.61243022222223,83.71265084715537 126.61245155555555,83.71275652787182 126.61245155555555,83.71287395063425 126.61248711111112,83.71297963089017 126.61252977777778,83.71334363899103 126.61255822222223,83.71344931827751 126.61260800000001,83.71354325523797 126.61263644444446,83.71364893411244 126.61262933333335,83.71369590243108 126.61260800000001,83.71371938657425 126.61255822222223,83.7137546127688 126.61229511111112,83.71373112864183 126.611776,83.71408338941589 126.611648,83.7142125510925 126.61128533333334,83.71470571086073 126.61120711111111,83.7147879036936 126.61115733333334,83.71481138733591 126.61111466666667,83.71482312915305 126.61105777777777,83.7147879036936 126.61086577777778,83.71443564776649 126.61082311111112,83.71441216395186 126.61074488888889,83.71441216395186 126.61073066666667,83.71442390586054 126.61073066666667,83.71444738966977 126.610624,83.71450609914578 126.61058133333334,83.71450609914578 126.61054577777777,83.71428300277879 126.610496,83.71409513139997 126.61042488888889,83.71391900135623 126.61039644444446,83.71374287070665 126.61019733333335,83.71299137312738 126.610112,83.712592135552 126.61009777777777,83.71242774270434 126.61005511111111,83.71233380369725 126.61003377777777,83.71216941002015 126.60991288888889,83.71191107603252 126.60987022222223,83.7117231959501 126.609728,83.71139440414686 126.609728,83.71137091893726 126.60962133333334,83.71120652216845 126.60944355555557,83.7110656102322 126.60920177777777,83.71084249887329 126.60914488888889,83.71083075614328 126.60910222222222,83.71077204245273 126.60898844444445,83.71068984317283 126.60888888888888,83.71058415819047 126.60886755555556,83.71053718701717 126.60888888888888,83.71043150171971 126.60886044444445,83.71038453040634 126.60886755555556,83.71037278757129 126.60896711111111,83.71036104473353 126.60905955555556,83.71039627323871 126.60928,83.71040801606841 126.60930844444445,83.71039627323871 126.60931555555557,83.71037278757129 126.60929422222223,83.71026710193446 126.6092231111111,83.71022013047029 126.60917333333335,83.7102083875975 126.60913066666667,83.71023187334038 126.60910933333334,83.71022013047029 126.60907377777777,83.71013793030428 126.60892444444445,83.71005573000633 126.60866133333334,83.70980912832059 126.60861866666667,83.70972692749473 126.60852622222222,83.70964472653688 126.60864,83.70962124052468 126.60864711111111,83.709574268468 126.60846222222223,83.70950381030208 126.60830577777779,83.70928069213716 126.60830577777779,83.70917500424596 126.60841244444445,83.70904582986046 126.60839822222222,83.70899885727584 126.60846933333333,83.70901060042603 126.60849066666668,83.70904582986046 126.60852622222222,83.70918674735574 126.6085617777778,83.70923371976801 126.60859733333334,83.70924546286435 126.60858311111112,83.7091632611335 126.60866844444445,83.70897537096734 126.60869688888889,83.70888142562572 126.6086897777778,83.70881096650635 126.60859022222222,83.70864656151744 126.60854755555556,83.70861133180824 126.60847644444445,83.70845866945507 126.60831288888889,83.70821206007679 126.60828444444445,83.70814160003621 126.60827022222223,83.70802416641979 126.60822044444446,83.70793021933271 126.60815644444445,83.70774232464143 126.60807111111112,83.7076014031704 126.60804266666668,83.7076014031704 126.607936,83.70754268577633 126.60790044444445,83.70749571181258 126.6078577777778,83.70739002023657 126.60743111111111,83.70709643138059 126.60729599999999,83.70711991855104 126.6071751111111,83.70710817496717 126.60704711111111,83.70696725175063 126.6067768888889,83.70672063518828 126.60671288888891,83.70669714783466 126.60648533333334,83.70670889151282 126.60627199999999,83.70666191678403 126.60619377777779,83.70661494201218 126.60617244444445,83.70663842940351 126.60617955555556,83.70669714783466 126.60646399999999,83.7068967899969 126.6066488888889,83.7069789953668 126.60678399999999,83.70710817496717 126.6067768888889,83.70716689285959 126.60672,83.70729607198585 126.6066488888889,83.70741350727235 126.60663466666668,83.7074839683149 126.60663466666668,83.70754268577633 126.606656,83.70758965969699 126.60672,83.70766012049714 126.60672,83.70769535086085 126.6066488888889,83.70764837703717 126.60660622222223,83.70758965969699 126.60657777777779,83.7073195590647 126.6065848888889,83.70721386712503 126.60657066666667,83.7071434057107 126.60625066666667,83.70702596980465 126.60618666666667,83.7070377134074 126.60602311111111,83.70713166213224 126.60596622222222,83.70713166213224 126.60590933333333,83.70709643138059 126.6058311111111,83.70696725175063 126.60580266666668,83.70682632814618 126.60577422222222,83.70675586619848 126.60572444444445,83.70670889151282 126.60551822222222,83.70665017309511 126.60541155555556,83.706579710905 126.60506311111111,83.70643878623379 126.604864,83.70627437362711 126.60473600000002,83.70628611740224 126.60462222222222,83.70625088606877 126.60451555555557,83.7061451919229 126.60445155555556,83.70610996049246 126.60429511111113,83.70610996049246 126.60425955555556,83.70613344811545 126.60425244444444,83.70615693572768 126.60431644444445,83.70616867952972 126.60439466666668,83.70621565471106 126.60446577777779,83.70636832375274 126.60455111111112,83.70645052997122 126.6046008888889,83.70647401743798 126.60482133333333,83.70647401743798 126.60505600000002,83.70659145461008 126.60487822222223,83.70654447977356 126.60465777777779,83.70640355500535 126.60435911111112,83.7063448362375 126.60425244444444,83.70628611740224 126.60401777777778,83.70629786117468 126.60390400000001,83.70625088606877 126.60349866666667,83.70616867952972 126.60339200000001,83.70610996049246 126.60337066666666,83.70613344811545 126.60330666666667,83.70629786117468 126.6033848888889,83.70629786117468 126.60340622222223,83.7063213487115 126.60329244444445,83.70641529875087 126.60324266666667,83.70639181125718 126.603136,83.70639181125718 126.60292977777779,83.7063448362375 126.60244622222224,83.70628611740224 126.60202666666667,83.7063213487115 126.60160711111112,83.7064857611673 126.60128,83.70653273605771 126.60116622222223,83.70660319831246 126.60115200000001,83.70662668570918 126.60116622222223,83.70668540415383 126.6011448888889,83.70673237886106 126.60100977777778,83.70680284084105 126.60096711111112,83.70686155908365 126.60092444444444,83.70695550813174 126.60079644444444,83.70709643138059 126.6007608888889,83.70726084134739 126.60068977777777,83.70728432844237 126.60046222222223,83.70716689285959 126.60041244444446,83.70710817496717 126.60040533333334,83.70707294419938 126.60041244444446,83.70701422619925 126.60046222222223,83.7069202772589 126.60047644444445,83.70686155908365 126.60048355555556,83.70668540415383 126.60043377777778,83.70666191678403 126.60039111111112,83.70659145461008 126.60036977777777,83.706579710905 126.60030577777778,83.70660319831246 126.60018488888889,83.70660319831246 126.60011377777778,83.7065679671972 126.5999288888889,83.70654447977356 126.60000711111111,83.70649750489392 126.60002133333334,83.70645052997122 126.59998577777777,83.70636832375274 126.59967288888889,83.70627437362711 126.599616,83.70629786117468 126.59954488888889,83.70623914228554 126.59949511111111,83.70616867952972 126.59943111111112,83.70612170430529 126.59936711111112,83.7061451919229 126.59927466666666,83.70612170430529 126.59921066666666,83.70607472903774 126.598912,83.70594554682978 126.59884088888889,83.70596903452818 126.59876266666666,83.7060394975588 126.59867733333334,83.70607472903774 126.59856355555557,83.70601600989272 126.59845688888889,83.70601600989272 126.59831466666667,83.70607472903774 126.59822222222223,83.70607472903774 126.59817244444446,83.7060394975588 126.598144,83.70598077837334 126.59803733333334,83.70585159592832 126.59791644444445,83.70578113263909 126.59789511111111,83.70573415705908 126.59787377777778,83.7056284618464 126.59777422222223,83.70551102246529 126.59772444444445,83.70541707076642 126.59764622222222,83.70541707076642 126.59748266666668,83.70549927851238 126.59742577777777,83.7054405587073 126.59741866666668,83.70539358281476 126.597376,83.70531137489914 126.59736888888888,83.70527614289487 126.59739022222223,83.7052174228339 126.59738311111111,83.70520567881363 126.597312,83.70522916685147 126.59729777777777,83.7052174228339 126.59730488888889,83.70519393479066 126.59728355555556,83.70515870270557 126.597248,83.70517044673662 126.59721955555557,83.70515870270557 126.59719111111112,83.70505300630487 126.59707022222223,83.70500603005672 126.59695644444446,83.70499428598794 126.59696355555556,83.70497079784232 126.59695644444446,83.70488858924779 126.596928,83.70482986874228 126.59658666666668,83.70481812463312 126.59652266666667,83.7047828922894 126.59633066666667,83.7047594040468 126.59621688888889,83.70470068339313 126.59601777777779,83.70472417166268 126.59591822222222,83.7047828922894 126.59586844444445,83.7047828922894 126.59582577777779,83.70474765992145 126.59574044444444,83.70450103266688 126.59568355555557,83.70444231171686 126.59565511111111,83.70446580010494 126.59564088888888,83.70444231171686 126.59566222222223,83.70440707911452 126.59575466666668,83.70440707911452 126.59579022222222,83.70437184648794 126.59571199999999,83.70430138116203 126.59567644444445,83.70430138116203 126.59561244444446,83.70426614846272 126.59566933333333,83.70424265998302 126.595648,83.7041721944793 126.59559822222222,83.70412521742293 126.59546311111112,83.70403126318087 126.595328,83.7040077745934 126.59529955555557,83.70396079738617 126.59530666666667,83.70387858716978 126.59534933333333,83.7037846324751 126.59534933333333,83.70373765506312 126.59532088888888,83.70363195572853 126.59521422222222,83.7034792785266 126.59517866666668,83.70345578968588 126.59509333333334,83.70345578968588 126.59499377777779,83.70339706753697 126.59492977777779,83.70320915620778 126.59492266666668,83.70311520028451 126.59485155555556,83.70305647774494 126.59467377777779,83.70305647774494 126.59444622222222,83.70299775513799 126.5942257777778,83.70303298871025 126.59407644444445,83.70295077700392 126.5940337777778,83.70296252154147 126.59393422222222,83.7032443896345 126.59364266666667,83.70424265998302 126.59362844444445,83.7042778926985 126.59360000000001,83.70430138116203 126.59347911111111,83.70434835805673 126.59305244444445,83.70436010227368 126.59221333333333,83.70446580010494 126.5918008888889,83.70448928848225 126.5916728888889,83.70446580010494 126.59161600000002,83.70439533490837 126.59161600000002,83.70428963693159 126.59172266666667,83.70385509851228 126.59185777777779,83.70319741172679 126.59193600000002,83.70290379882675 126.59193600000002,83.70285682060647 126.59191466666667,83.70282158691299 126.59184355555556,83.70284507604468 126.59163022222222,83.70300949966476 126.59160177777778,83.70305647774494 126.59158755555556,83.70318566724313 126.59155911111112,83.7032443896345 126.59151644444445,83.70327962303702 126.59147377777778,83.70327962303702 126.59143111111112,83.7032443896345 126.59136000000001,83.70305647774494 126.59126044444444,83.70288030972199 126.5912248888889,83.70284507604468 126.59117511111113,83.70283333148015 126.59104,83.70292728792073 126.59101866666667,83.70303298871025 126.5909688888889,83.70317392275675 126.59094044444444,83.7031621782677 126.59088355555555,83.70307996676883 126.59086222222221,83.70288030972199 126.59078400000001,83.70273937486719 126.59074133333333,83.70272763027843 126.59068444444445,83.70277460861726 126.59062044444444,83.70303298871025 126.59057066666666,83.70311520028451 126.59044266666668,83.70317392275675 126.59027911111112,83.7031621782677 126.59010844444444,83.70320915620778 126.58993066666667,83.70346753410756 126.589888,83.70356148938421 126.58973866666666,83.70373765506312 126.58968177777778,83.70390207581652 126.58958933333332,83.70396079738617 126.58955377777778,83.7039373087664 126.58947555555555,83.70381986550584 126.58944711111113,83.70380812116494 126.58941866666667,83.70381986550584 126.589376,83.70389033149448 126.58933333333334,83.70390207581652 126.58922666666666,83.703831609844 126.58913422222223,83.70370242197583 126.58889955555556,83.70351451176744 126.58859377777777,83.70344404526148 126.58848,83.70346753410756 126.58833777777778,83.70346753410756 126.58820977777778,83.70342055640461 126.58814577777778,83.70335008976932 126.58804622222223,83.70315043377596 126.58793955555555,83.70303298871025 126.58786133333335,83.7029860106085 126.58779733333334,83.70300949966476 126.58759111111112,83.70295077700392 126.58741333333334,83.70295077700392 126.58734222222223,83.70291554337507 126.58720711111111,83.70277460861726 126.58710044444446,83.702715885687 126.58703644444445,83.702715885687 126.58695822222224,83.70279809777051 126.58688711111111,83.70273937486719 126.58677333333334,83.70268065189649 126.58668800000001,83.70269239649603 126.58654577777777,83.70276286403661 126.586496,83.70276286403661 126.58638222222223,83.70272763027843 126.586048,83.70257495037954 126.58565688888889,83.70244575934015 126.58561422222223,83.7024575039936 126.58551466666667,83.7024222700253 126.58549333333335,83.70241052536377 126.58543644444445,83.70230482328905 126.58531555555557,83.70217563156802 126.58523022222222,83.70214039740571 126.58496711111111,83.7021169079507 126.58469688888889,83.70216388684996 126.58455466666668,83.70210516321916 126.584384,83.70208167374797 126.58429155555557,83.70196422623037 126.58409955555557,83.7019524814638 126.58405688888888,83.70191724714789 126.58402133333334,83.70184677844335 126.58399288888889,83.70183503364981 126.58388622222222,83.70185852323416 126.58367288888888,83.70172933038685 126.58358044444445,83.70164711658703 126.58344533333334,83.70148268859123 126.58331022222222,83.70138872949934 126.58317511111112,83.70118906585657 126.58306133333333,83.70109510622581 126.58293333333334,83.7009071864469 126.58281955555556,83.70077799119878 126.58275555555556,83.7007310110277 126.58253511111111,83.70068403081353 126.582336,83.70059007025583 126.582272,83.70059007025583 126.58222933333333,83.70061356041143 126.58217244444445,83.70061356041143 126.5819591111111,83.70067228575323 126.58175999999999,83.70054308991229 126.58165333333334,83.70054308991229 126.5814471111111,83.70060181533495 126.58115555555555,83.70057832517399 126.58107733333334,83.70055483500224 126.58097777777779,83.7004138937453 126.58091377777778,83.7004138937453 126.58082133333333,83.70033167783288 126.58064355555555,83.70028469725224 126.58056533333334,83.70021422630043 126.58048000000001,83.70016724561198 126.58037333333333,83.70020248113235 126.58032355555557,83.7001907359616 126.58027377777779,83.70021422630043 126.57994666666667,83.6999440867531 126.57965511111112,83.69976790801947 126.57907911111113,83.6993568219497 126.578944,83.6992393681806 126.57857422222222,83.69878129590617 126.57846044444445,83.69842892982894 126.57833244444444,83.69818227213173 126.57820444444444,83.6979708503025 126.57811911111112,83.69786513906044 126.57798400000001,83.69775942760009 126.57798400000001,83.69773593613485 126.57809777777778,83.69753625824471 126.57844622222224,83.69717213773407 126.57864533333333,83.69701944126527 126.57866666666668,83.69699594946044 126.57867377777778,83.69693721990112 126.57868800000001,83.69691372805852 126.57873777777779,83.69689023620518 126.5789368888889,83.69686674434102 126.57904355555556,83.69674928485856 126.57929244444445,83.69665531707851 126.57932800000002,83.69662007911654 126.57941333333333,83.69646738100104 126.57943466666667,83.69645563497326 126.57961244444445,83.69638515875013 126.57971911111113,83.69638515875013 126.57981866666667,83.6963499206022 126.5800391111111,83.69631468243 126.58012444444445,83.6962559520891 126.58029511111111,83.69626769816267 126.58033777777779,83.69624420601282 126.58033066666667,83.6962207138522 126.58027377777779,83.69620896776786 126.58027377777779,83.69618547559107 126.58040177777778,83.69620896776786 126.58065066666667,83.69617372949861 126.58067911111111,83.696114998996 126.58071466666668,83.6961032528874 126.58081422222222,83.69597404551479 126.58086400000002,83.6958800763117 126.58092800000001,83.69583309164545 126.58099200000001,83.69582134547218 126.58102044444445,83.6957978531175 126.5810488888889,83.6957978531175 126.58107733333334,83.69584483781608 126.58105600000002,83.69598579165307 126.58118400000002,83.69603277617912 126.58122666666668,83.69596229937383 126.58124799999999,83.69563340633289 126.581312,83.69543372024133 126.58133333333333,83.69529276488421 126.58148977777779,83.69499910664359 126.58156799999999,83.69490513565077 126.58166044444445,83.69483465729297 126.58170311111111,83.69471719314768 126.581696,83.69469370028628 126.58158933333334,83.69469370028628 126.58147555555556,83.69464671453112 126.58140444444444,83.69464671453112 126.58129777777779,83.69459972873284 126.58082844444445,83.69416510805422 126.58080000000001,83.6941533614982 126.58059377777779,83.69393017642128 126.58033066666667,83.69370699037123 126.58030933333333,83.69367175037964 126.57999644444445,83.69344856320285 126.57961244444445,83.69313140080398 126.57936355555556,83.69295519862214 126.57910044444445,83.69270851454863 126.57899377777778,83.69263803316639 126.57870222222222,83.69237960060133 126.57828977777778,83.69205068454058 126.57820444444444,83.69194496107221 126.57815466666666,83.69182749029571 126.57845333333333,83.69169827213013 126.57856711111113,83.69169827213013 126.57926400000001,83.69142808763903 126.57954844444444,83.69135760449377 126.5804088888889,83.69102868186594 126.58133333333333,83.6907349991622 126.58144,83.69072325181901 126.58146133333334,83.69071150447311 126.58148977777779,83.6906527677032 126.58139733333333,83.69042956736287 126.58126222222222,83.69032384054617 126.58118400000002,83.69028859822542 126.58115555555555,83.69030034566836 126.58113422222222,83.69033558798102 126.58114133333333,83.69034733541321 126.58112000000001,83.69035908284269 126.58104177777778,83.69034733541321 126.58087111111111,83.69041781994957 126.58070044444445,83.69041781994957 126.58068622222223,83.69044131477344 126.58050133333333,83.69047655698908 126.58048000000001,83.69046480958659 126.58039466666668,83.69047655698908 126.58026666666667,83.69042956736287 126.58019555555556,83.69045306218138 126.58016711111111,83.69044131477344 126.5801031111111,83.69046480958659 126.58003200000002,83.69046480958659 126.5799608888889,83.69052354657217 126.57992533333334,83.69061752560893 126.57993955555555,83.69071150447311 126.57998222222221,83.69078198850804 126.57998222222221,83.69080548316475 126.57981155555557,83.69094645087874 126.57978311111111,83.6909581981707 126.57974755555556,83.69099344003047 126.57961955555555,83.69106392367715 126.57958400000001,83.69105217640944 126.57954844444444,83.69101693459015 126.57956977777779,83.69099344003047 126.57954844444444,83.69098169274656 126.57952711111112,83.69089946168387 126.57950577777778,83.69087596707027 126.57950577777778,83.69074674650268 126.57949155555556,83.69071150447311 126.57946311111112,83.69068800977323 126.57944177777779,83.69062927297637 126.57944177777779,83.69060577823875 126.57954133333334,83.69058228349034 126.57956266666667,83.69048830438891 126.57956977777779,83.69035908284269 126.57954133333334,83.6902063660493 126.57954844444444,83.68999491127548 126.57953422222222,83.68977170806654 126.57949155555556,83.68963073711734 126.57949866666667,83.68959549431935 126.57948444444445,83.68957199910726 126.57946311111112,83.68937228936878 126.57946311111112,83.68927830804577 126.57948444444445,83.68918432655018 126.57947733333333,83.6890785971614 126.57943466666667,83.68893762430332 126.57940622222222,83.68870266867705 126.57942755555555,83.68864392960194 126.57942044444445,83.68844421624247 126.57939911111113,83.68836198110327 126.57941333333333,83.6881975104285 126.57937777777778,83.68805653514374 126.57920000000001,83.68806828309894 126.57883733333333,83.68829149373592 126.57869511111113,83.68833848532493 126.57856000000001,83.68835023321543 126.578432,83.68832673743171 126.57831111111112,83.68837372898837 126.57818311111113,83.68836198110327 126.57807644444445,83.68839722475053 126.57803377777778,83.6883854768708 126.57792711111112,83.68830324163721 126.57789155555555,83.68824450210377 126.57788444444444,83.6881975104285 126.57781333333332,83.68815051871005 126.57776355555555,83.68808003105148 126.57773511111112,83.68791555947075 126.57769955555555,83.68782157547301 126.57769244444444,83.68756311858955 126.57757866666667,83.68703445271755 126.57757155555555,83.68667025749595 126.57750755555556,83.68648228475476 126.57749333333332,83.6861650791887 126.57744355555556,83.68588311703525 126.57735822222223,83.68514295899219 126.57730844444444,83.68488448858271 126.57726577777778,83.68476700160147 126.57718755555555,83.68439104144926 126.57715200000001,83.68415606495176 126.57710222222224,83.68356861898852 126.57707377777778,83.68316915188225 126.57703111111113,83.68313390463499 126.57686755555555,83.68314565372013 126.57602844444445,83.68333363871537 126.57595022222223,83.68331014062872 126.57592177777778,83.6832748934785 126.57608533333335,83.68248770079957 126.57608533333335,83.68239370683474 126.5760568888889,83.68227621413598 126.57596444444444,83.68215872116751 126.575872,83.68208822525699 126.57551644444446,83.68192373442142 126.57521777777778,83.68175924305726 126.57516088888889,83.68172399483902 126.57502577777778,83.68159475116443 126.57432177777778,83.68017304920359 126.57412977777777,83.67972655614153 126.57387377777778,83.67918605932859 126.57346133333334,83.67843405426741 126.57312711111112,83.67770553882741 126.57282844444445,83.67716502067074 126.57265777777778,83.67670675080544 126.57262933333334,83.67655399327177 126.57257244444446,83.67600171223066 126.57248,83.67537892007726 126.57249422222223,83.675061645689 126.57252266666669,83.67485012833744 126.57254400000001,83.67465036114713 126.57264355555557,83.67427432667358 126.572736,83.67348699554591 126.57300622222223,83.6721120748303 126.57321955555557,83.67083113255015 126.57325511111111,83.67074886910625 126.57342577777777,83.66998498795499 126.57348266666666,83.66960891919973 126.57348977777778,83.66926810450315 126.57346133333334,83.66871574482983 126.57349688888888,83.6680928640034 126.57367466666666,83.66704687725834 126.57370311111112,83.66677656260052 126.57372444444445,83.66649449360918 126.57370311111112,83.66638871733656 126.57370311111112,83.66598911611128 126.57368177777778,83.66567178350361 126.57359644444446,83.66487256673562 126.57345422222222,83.664085090947 126.57341155555557,83.66365021106378 126.57341155555557,83.66334461758348 126.57339733333335,83.66308603705932 126.57340444444445,83.66274517891739 126.57351111111112,83.66205170189585 126.57367466666666,83.66133470729713 126.57381688888889,83.6608410330449 126.57395911111112,83.66066471965769 126.57402311111112,83.66064121116018 126.57415111111112,83.66062945690736 126.57440711111111,83.66066471965769 126.57454933333334,83.66062945690736 126.57466311111112,83.66053542278766 126.57475555555556,83.6603473540298 126.57489066666666,83.65992419679736 126.5752248888889,83.65900734412209 126.57565866666667,83.65776133851212 126.57569422222224,83.6575967694651 126.57570133333334,83.6574321998888 126.57563022222223,83.65719709957591 126.57550933333334,83.65680918169801 126.57546666666667,83.65660934406775 126.57545955555555,83.65642126087921 126.575488,83.6561156242233 126.57577244444444,83.65532801365751 126.57575822222223,83.65522221429964 126.57564444444446,83.65511641472301 126.57555911111112,83.655104659201 126.57536,83.65523396979464 126.57528888888889,83.65523396979464 126.57516088888889,83.65528099174767 126.57505422222224,83.65526923626348 126.57501866666667,83.65523396979464 126.57499733333334,83.65517519229257 126.574976,83.65490481491345 126.57498311111112,83.65484603703328 126.574976,83.65469321422881 126.57504711111112,83.6546226804728 126.57528888888889,83.6545403909679 126.57557333333335,83.65429352165916 126.57568,83.65423474307673 126.57577244444444,83.65415245294795 126.57590755555556,83.65418772016221 126.57595022222223,83.65415245294795 126.57604977777778,83.65411718570937 126.57630577777778,83.65377626781655 126.57642666666666,83.65352939482099 126.57652622222223,83.65337656808396 126.57659022222224,83.65335305623773 126.57661866666666,83.65331778844816 126.57665422222223,83.65323549684462 126.57671111111112,83.65318847301171 126.57673955555555,83.65312969315983 126.576768,83.65305915724846 126.57683200000001,83.65297686522894 126.57687466666667,83.65287106100936 126.57688177777779,83.652765256571 126.57687466666667,83.6526359397381 126.57688177777779,83.65254189092704 126.57702400000001,83.65228325580532 126.57715200000001,83.65220096253785 126.57728711111112,83.65225974345671 126.57740088888889,83.65225974345671 126.57762133333333,83.65221271872704 126.5776568888889,83.65218920634601 126.57769955555555,83.65220096253785 126.57782755555556,83.6521539377542 126.57807644444445,83.65200110690873 126.57832533333332,83.65167193122953 126.57834666666668,83.6516131496354 126.57836800000001,83.65140153533733 126.57835377777778,83.65128397146023 126.57838222222223,83.65123694583374 126.57851733333332,83.6511546508834 126.57856711111113,83.65108411224918 126.57858844444445,83.6510135735177 126.57858844444445,83.65089600874916 126.57868800000001,83.65066087840162 126.57885155555556,83.65049628651542 126.57895111111112,83.65034345071841 126.57908622222222,83.65034345071841 126.57912177777779,83.65033169409972 126.57917155555556,83.65028466759796 126.57917866666668,83.65021412776434 126.57915733333333,83.65014358783344 126.57915733333333,83.65006129112447 126.57917155555556,83.65001426437419 126.579136,83.649920210744 126.57910044444445,83.64989669730942 126.57880177777778,83.64984967040786 126.57830400000002,83.64982615694086 126.57760711111112,83.64969683267927 126.57687466666667,83.64963804881594 126.576704,83.64964980559404 126.57644800000001,83.64970858944386 126.576192,83.64980264346306 126.57558044444445,83.64989669730942 126.57514666666667,83.64989669730942 126.57499733333334,83.649920210744 126.57478400000001,83.649920210744 126.5745848888889,83.6498849405881 126.57450666666666,83.64979088672013 126.57432177777778,83.6493441284862 126.57427200000001,83.64894439412808 126.57426488888889,83.64882682460485 126.57427200000001,83.64868574082035 126.57424355555555,83.64849762850251 126.57415822222222,83.64830951549304 126.57374577777777,83.64762760003572 126.57367466666666,83.6474629983912 126.57365333333334,83.64729839621711 126.57356088888889,83.64701621982952 126.57355377777778,83.64688688846508 126.57353244444445,83.64678107165099 126.57349688888888,83.64675755677371 126.57334755555557,83.64674579933097 126.57316266666666,83.64680458651745 126.57304177777777,83.64675755677371 126.57287822222223,83.64661646728297 126.572864,83.64646361989561 126.57282133333334,83.64624022673881 126.572736,83.64614616617047 126.57259377777777,83.64607562063071 126.57263644444446,83.64598155975972 126.572672,83.64575816449806 126.57268622222223,83.64569937610915 126.572736,83.64544070639559 126.57283555555557,83.64528785549555 126.572992,83.6450762150339 126.57307022222223,83.64500566801878 126.57321244444445,83.6450291837013 126.57336177777778,83.6450174258614 126.57363911111112,83.6447940263898 126.57373866666666,83.64446480433782 126.57371733333335,83.64440601446275 126.57364622222222,83.64434722452009 126.57352533333334,83.64417085428687 126.57344711111112,83.644112064074 126.57333333333334,83.64407678991385 126.57312,83.64394745111858 126.57278577777778,83.64384162822469 126.57264355555557,83.64377107950718 126.57254400000001,83.64366525624844 126.57247288888888,83.64354767459318 126.57239466666668,83.64348888366419 126.57230222222223,83.64346536727368 126.57217422222223,83.64337130160354 126.57212444444446,83.64337130160354 126.571904,83.64328899400032 126.57184,83.64315965321336 126.57162666666667,83.64303031209943 126.57156977777777,83.64297152057591 126.57147022222223,83.64277162889061 126.571328,83.64261877001603 126.57109333333334,83.64244239382397 126.57101511111111,83.6424188769524 126.57096533333333,83.64238360162483 126.57071644444446,83.64212491514596 126.57060977777779,83.64204260553745 126.57046755555557,83.64197205433905 126.5703751111111,83.64196029579651 126.5701831111111,83.64183095165036 126.57002666666668,83.6418191930754 126.56976355555557,83.641866227359 126.56963555555556,83.64180743449774 126.56926577777779,83.64177215874855 126.56907377777779,83.64177215874855 126.56886044444445,83.64172512437844 126.56873244444445,83.64163105550853 126.56854755555555,83.6415957796377 126.56849066666668,83.64156050374258 126.56814933333334,83.6412900544051 126.56800000000001,83.64124301959176 126.56782222222222,83.6411136736321 126.56770133333333,83.64106663865661 126.56758044444445,83.64096080980363 126.56742400000002,83.64092553347064 126.56737422222221,83.64089025711336 126.56727466666668,83.64086673952829 126.56718933333333,83.64077266908002 126.56693333333334,83.64069035729582 126.56666311111113,83.6405374922025 126.5663288888889,83.64051397445527 126.56627911111113,83.64049045669725 126.56625066666668,83.6404669389284 126.56622933333333,83.64041990335829 126.56621511111112,83.64030231424385 126.56622222222222,83.64011417109853 126.56627911111113,83.63969084649165 126.56632177777779,83.63956149660754 126.56647111111113,83.63843261100905 126.56651377777779,83.638220942186 126.56657066666668,83.63799751303375 126.56659911111113,83.6378563993822 126.56664888888889,83.63768000677034 126.56669155555556,83.63740953691754 126.56679111111113,83.6370802673406 126.56689777777778,83.63690387205253 126.56706844444444,83.63668043714787 126.56753066666667,83.63618652494824 126.56768000000001,83.63597484683143 126.5679288888889,83.6357161279436 126.56814933333334,83.6353280471585 126.56854044444445,83.63475180056133 126.5690097777778,83.63388153829422 126.56989155555556,83.6320233611967 126.57007644444445,83.63156468684258 126.570176,83.63125890165496 126.5707377777778,83.62977699369729 126.57090844444446,83.6292359689831 126.57124266666668,83.62830680449079 126.57134222222223,83.62800099982707 126.57137777777777,83.62773047879293 126.57141333333334,83.62764814602025 126.57181155555557,83.62736586122224 126.57233066666669,83.62696595509169 126.57252977777777,83.6269071451029 126.57287822222223,83.62670719063524 126.57307733333334,83.62654252166323 126.57346133333334,83.62628375506469 126.57351111111112,83.62623670645156 126.57365333333334,83.62600146273692 126.57383111111112,83.62577798020584 126.57393066666667,83.62568388200592 126.57417955555555,83.62548392275627 126.5747128888889,83.62514281399687 126.57500444444446,83.62484875289573 126.57527466666666,83.62443706451396 126.57538844444446,83.62413123671385 126.57545955555555,83.62404889814758 126.57550933333334,83.62404889814758 126.57559466666666,83.62410771142274 126.575744,83.6243194386534 126.57590044444444,83.62444882708515 126.57636977777778,83.62470760296668 126.57648355555555,83.6247546529863 126.57659022222224,83.62476641548446 126.5766328888889,83.62474289048546 126.576704,83.62462526532819 126.576704,83.62469584045502" stroke-width="0.0005087412330803786" fill="none" />
    </g>
  </svg>
